<svg xmlns="http://www.w3.org/2000/svg"  viewBox="0 0 64 64" width="64px" height="64px"><path d="M 37 3 C 37.599 4.927 37.57 6.979 37 8 C 33.058 3.573 25 4 25 4 C 25.824 5.31 26.479 7.072 26.5 8.5 C 21.458 5.481 16 8 16 8 C 17.505 9.504 17.877 10.932 18 12 C 14.949 11.991 12.115 13.144 10 15 C 11.857 15.974 13.462 17.57 14 19 L 13 23 C 13.347 23.187 13.679047 23.457391 13.998047 23.775391 C 13.996047 24.713391 13.995141 26.367 13.994141 28 L 11.292969 28 C 10.963969 28 10.650641 28.140719 10.431641 28.386719 C 10.211641 28.631719 10.105578 28.958156 10.142578 29.285156 C 10.418578 31.772156 11 37 11 37 L 13.427734 39.427734 C 13.379734 39.903734 13.332063 40.362109 13.289062 40.787109 C 13.070063 42.938109 13 43.663 13 44 C 13 45.619 13.811156 47.204078 15.285156 50.080078 C 15.568156 50.631078 15.879844 51.234391 16.214844 51.900391 C 18.026844 55.492391 20.134891 59.001953 24.212891 59.001953 L 39.787109 59.001953 C 43.869109 59.001953 46.056156 55.336391 47.785156 51.900391 C 48.114156 51.247391 48.421125 50.649609 48.703125 50.099609 C 50.136125 47.303609 51 45.617 51 44 C 51 43.663 50.929938 42.938109 50.710938 40.787109 C 50.650937 40.196109 50.584578 39.542281 50.517578 38.863281 L 53 37 C 53 37 53.602094 31.574437 53.871094 29.148438 C 53.904094 28.856437 53.811234 28.564703 53.615234 28.345703 C 53.419234 28.125703 53.13775 28 52.84375 28 L 50.005859 28 C 50.004859 26.463 50.002953 24.912172 50.001953 23.951172 L 51 20 L 54 18 L 52 16 L 54 13 L 50 13 C 50.423 10.806 50.884 8.55 50 7 L 46 10 C 43.316 3.768 37 3 37 3 z M 21 22 L 23 24 L 26 22 L 29 25 L 32 22 L 35 26 L 39 22 L 42 25 L 45 22 L 46.003906 24.582031 C 46.006906 26.782031 46.01 30.6625 46 32.0625 C 45.993 33.1235 46.137266 35.023109 46.322266 37.037109 C 45.681266 37.839109 44.79475 38.948172 44.09375 39.826172 C 43.38575 40.710172 43 41.809406 43 42.941406 L 43 52.304688 C 41.657 54.487687 40.735109 55 39.787109 55 L 24.212891 55 C 23.265891 55 22.345 54.488734 21 52.302734 L 21 42.826172 C 21 41.694172 20.61425 40.594937 19.90625 39.710938 C 19.20825 38.837938 18.326547 37.736547 17.685547 36.935547 C 17.865547 34.960547 18.007 33.1055 18 32.0625 C 17.995 31.2805 17.994141 29.720281 17.994141 28.113281 L 21 22 z M 43.298828 28.673828 L 34.798828 33.173828 C 34.307828 33.433828 34 33.944 34 34.5 L 34 39.009766 C 33.183 39.208766 32.536062 39.592891 32.039062 39.962891 C 31.544062 39.597891 30.887 39.239969 30 39.042969 L 30 34.154297 C 30 33.609297 29.703563 33.105797 29.226562 32.841797 L 21.726562 28.6875 L 20.273438 31.3125 L 22.585938 32.59375 C 22.224937 32.95575 22 33.453 22 34 C 22 35.097 22.903 36 24 36 C 24.941 36 25.735359 35.333172 25.943359 34.451172 L 27 35.037109 L 27 40.384766 C 27 41.212766 27.670047 41.884766 28.498047 41.884766 C 29.820047 41.885766 30.298688 42.364141 30.804688 42.869141 L 30.953125 43.015625 C 31.242125 43.298625 31.62 43.441406 32 43.441406 C 32.323 43.441406 32.646922 43.336953 32.919922 43.126953 C 33.045922 43.028953 33.181078 42.910297 33.330078 42.779297 C 34.008078 42.188297 34.512 41.803906 35.375 41.878906 C 35.8 41.914906 36.206625 41.770328 36.515625 41.486328 C 36.823625 41.204328 37 40.803766 37 40.384766 L 37 35.404297 L 38.164062 34.787109 C 38.472062 35.497109 39.182 36 40 36 C 41.097 36 42 35.097 42 34 C 42 33.605 41.880688 33.237781 41.679688 32.925781 L 44.701172 31.324219 L 43.298828 28.673828 z M 25.876953 44.550781 C 24.652953 44.622781 24 45.688062 24 46.914062 L 24 48.5 C 24 49.77 24.840203 51 26.033203 51 L 37.966797 51 C 39.159797 51 40 49.77 40 48.5 L 40 46.914062 C 40 45.704062 39.22725 44.653641 38.15625 44.556641 L 37.587891 47 C 33.256891 47.569 30.836 47.568 26.5 47 L 25.876953 44.550781 z"/></svg>
